<?xml version="1.0" encoding="UTF-8"?>
<svg xmlns="http://www.w3.org/2000/svg" width="640" height="640" viewBox="0 0 640 640">
  <defs>
    <linearGradient id="g1" x1="0" x2="0" y1="0" y2="1"><stop offset="0" stop-color="#ffd6e0"/><stop offset="1" stop-color="#ffb6c9"/></linearGradient>
    <filter id="sh2" x="-50%" y="-50%" width="200%" height="200%"><feDropShadow dx="0" dy="6" stdDeviation="10" flood-color="#000" flood-opacity="0.16"/></filter>
  </defs>
  <g transform="translate(160,80)" filter="url(#sh2)">
    <ellipse cx="160" cy="460" rx="160" ry="70" fill="#222"/>
    <rect x="120" y="180" width="80" height="220" rx="20" fill="#e8b8d6"/>
  </g>
  <g transform="translate(240,20)">
    <ellipse cx="80" cy="150" rx="68" ry="82" fill="#f6dcc2"/>
    <path d="M20 80 C8 40 68 8 100 18 C132 8 196 40 184 80 C180 120 152 140 100 140 C48 140 28 120 20 80 Z" fill="#6b4937"/>
    <g transform="translate(40,120)"><ellipse cx="0" cy="0" rx="10" ry="12" fill="#fff"/><circle cx="0" cy="0" r="5" fill="#2b2b2b"/></g>
    <g transform="translate(120,120)"><ellipse cx="0" cy="0" rx="10" ry="12" fill="#fff"/><circle cx="0" cy="0" r="5" fill="#2b2b2b"/></g>
    <path d="M50 60 L110 60 L80 30 Z" fill="#ffd36b"/>
  </g>
</svg>
