<?xml version="1.0" encoding="UTF-8"?>
<svg xmlns="http://www.w3.org/2000/svg" width="640" height="640" viewBox="0 0 640 640">
  <defs>
    <linearGradient id="dress" x1="0" x2="0" y1="0" y2="1"><stop offset="0" stop-color="#7ce2a1"/><stop offset="1" stop-color="#2fb064"/></linearGradient>
    <filter id="s2" x="-50%" y="-50%" width="200%" height="200%"><feDropShadow dx="0" dy="6" stdDeviation="10" flood-color="#000" flood-opacity="0.18"/></filter>
  </defs>
  <g transform="translate(160,80)" filter="url(#s2)">
    <ellipse cx="160" cy="460" rx="160" ry="70" fill="#1f2430"/>
    <rect x="120" y="180" width="80" height="200" rx="24" fill="url(#dress)"/>
  </g>
  <g transform="translate(260,20)">
    <ellipse cx="80" cy="150" rx="70" ry="84" fill="#f3d6c2"/>
    <path d="M20 80 C8 40 68 8 100 18 C132 8 196 40 184 80 C180 120 152 140 100 140 C48 140 28 120 20 80 Z" fill="#6b4937"/>
    <g transform="translate(40,120)"><ellipse cx="0" cy="0" rx="10" ry="12" fill="#fff"/><circle cx="0" cy="0" r="5" fill="#2b2b2b"/></g>
    <g transform="translate(120,120)"><ellipse cx="0" cy="0" rx="10" ry="12" fill="#fff"/><circle cx="0" cy="0" r="5" fill="#2b2b2b"/></g>
  </g>
  <!-- wings -->
  <g transform="translate(140,180)">
    <path d="M0 80 C-80 20 -40 -40 40 0 C80 24 80 84 0 80 Z" fill="#9fe7ff" opacity="0.9"/>
    <path d="M240 80 C320 20 280 -40 200 0 C160 24 160 84 240 80 Z" fill="#9fe7ff" opacity="0.9"/>
  </g>
</svg>
