<?xml version="1.0" encoding="UTF-8"?>
<svg xmlns="http://www.w3.org/2000/svg" width="640" height="640" viewBox="0 0 640 640">
  <defs>
    <linearGradient id="metal" x1="0" x2="0" y1="0" y2="1"><stop offset="0" stop-color="#dbe6ee"/><stop offset="1" stop-color="#9fb3c6"/></linearGradient>
    <filter id="s" x="-50%" y="-50%" width="200%" height="200%"><feDropShadow dx="0" dy="6" stdDeviation="10" flood-color="#000" flood-opacity="0.18"/></filter>
  </defs>
  <g transform="translate(160,60)" filter="url(#s)">
    <ellipse cx="160" cy="460" rx="160" ry="70" fill="#222"/>
    <rect x="100" y="160" width="120" height="220" rx="18" fill="url(#metal)" stroke="#6f8792" stroke-width="6"/>
    <path d="M100 240 C120 200 260 200 280 240 L280 360 C260 380 120 380 100 360 Z" fill="#9fb3c6" opacity="0.85"/>
    <rect x="140" y="360" width="20" height="80" rx="10" fill="#1f2930"/>
    <rect x="200" y="360" width="20" height="80" rx="10" fill="#1f2930"/>
  </g>
  <g transform="translate(210,20)">
    <ellipse cx="120" cy="150" rx="78" ry="92" fill="#f3dcc2"/>
    <path d="M36 90 C20 40 84 0 120 12 C156 0 220 40 204 90 C200 140 168 160 120 160 C72 160 44 140 36 90 Z" fill="#3b3e46"/>
    <rect x="78" y="110" width="84" height="48" rx="6" fill="#2b2f35"/>
    <g transform="translate(60,120)"><ellipse cx="0" cy="0" rx="12" ry="14" fill="#fff"/><circle cx="0" cy="0" r="6" fill="#2b2b2b"/></g>
    <g transform="translate(180,120)"><ellipse cx="0" cy="0" rx="12" ry="14" fill="#fff"/><circle cx="0" cy="0" r="6" fill="#2b2b2b"/></g>
    <path d="M86 190 Q120 210 154 190" stroke="#7a4a34" stroke-width="4" fill="none" stroke-linecap="round"/>
  </g>
  <!-- shield -->
  <g transform="translate(380,280)">
    <path d="M0 0 L60 -40 L120 0 L60 80 Z" fill="#cb3d3d" stroke="#7a1f1f" stroke-width="4"/>
    <circle cx="60" cy="20" r="18" fill="#ffd36b"/>
  </g>
</svg>
