<?xml version="1.0" encoding="UTF-8"?>
<svg xmlns="http://www.w3.org/2000/svg" width="640" height="640" viewBox="0 0 640 640">
  <defs>
    <linearGradient id="skinGrad2" x1="0" x2="0" y1="0" y2="1"><stop offset="0" stop-color="#f6d7b0"/><stop offset="1" stop-color="#e2b58a"/></linearGradient>
    <linearGradient id="hatGrad" x1="0" x2="1" y1="0" y2="1"><stop offset="0" stop-color="#2b2440"/><stop offset="1" stop-color="#3e2b66"/></linearGradient>
    <filter id="drop" x="-50%" y="-50%" width="200%" height="200%"><feDropShadow dx="0" dy="8" stdDeviation="12" flood-color="#000" flood-opacity="0.22"/></filter>
  </defs>
  <g transform="translate(160,120)" filter="url(#drop)">
    <ellipse cx="160" cy="360" rx="160" ry="90" fill="#23232b"/>
    <rect x="80" y="160" width="160" height="240" rx="30" fill="#3b2a70"/>
    <path d="M80 280 C120 240 200 240 240 280 L240 400 C200 420 120 420 80 400 Z" fill="#4b3a90"/>
  </g>
  <g transform="translate(200,40)">
    <ellipse cx="120" cy="140" rx="86" ry="102" fill="url(#skinGrad2)"/>
    <path d="M36 90 C20 40 84 0 120 12 C156 0 220 40 204 90 C200 140 168 160 120 160 C72 160 44 140 36 90 Z" fill="#2b1f25"/>
    <g transform="translate(60,120)"><ellipse cx="0" cy="0" rx="12" ry="14" fill="#fff"/><circle cx="0" cy="0" r="6" fill="#2b2b2b"/></g>
    <g transform="translate(180,120)"><ellipse cx="0" cy="0" rx="12" ry="14" fill="#fff"/><circle cx="0" cy="0" r="6" fill="#2b2b2b"/></g>
    <path d="M86 180 Q120 200 154 180" stroke="#7a4a34" stroke-width="4" fill="none" stroke-linecap="round"/>
  </g>
  <g transform="translate(160,-10)">
    <path d="M4 170 C24 110 120 80 200 110 C300 140 280 220 120 200 C40 190 4 170 4 170 Z" fill="url(#hatGrad)" stroke="#1f1730" stroke-width="4"/>
    <path d="M120 80 L220 20 L320 80 C260 40 200 20 120 80 Z" fill="#2f2346"/>
  </g>
  <g transform="translate(360,300) rotate(-18)">
    <rect x="0" y="0" width="220" height="12" rx="6" fill="#8b5a2b"/>
    <g transform="translate(160,4)"><path d="M0 0 C60 24 120 72 120 116 C80 96 40 110 0 116 Z" fill="#e0b36b"/></g>
  </g>
</svg>
